SplineFontDB: 3.0
FontName: Najan
FullName: Najan
FamilyName: Najan
Weight: Regular
Copyright: Copyright (c) 2018, Jonathan Sharman
UComments: "2018-5-26: Created with FontForge (http://fontforge.org)"
Version: 001.000
ItalicAngle: -13
UnderlinePosition: -50
UnderlineWidth: 25
Ascent: 384
Descent: 128
InvalidEm: 0
LayerCount: 2
Layer: 0 0 "Back" 1
Layer: 1 0 "Fore" 0
XUID: [1021 966 -875762404 7945]
StyleMap: 0x0000
FSType: 0
OS2Version: 0
OS2_WeightWidthSlopeOnly: 0
OS2_UseTypoMetrics: 1
CreationTime: 1527313937
ModificationTime: 1672853795
OS2TypoAscent: 0
OS2TypoAOffset: 1
OS2TypoDescent: 0
OS2TypoDOffset: 1
OS2TypoLinegap: 46
OS2WinAscent: 0
OS2WinAOffset: 1
OS2WinDescent: 0
OS2WinDOffset: 1
HheadAscent: 0
HheadAOffset: 1
HheadDescent: 0
HheadDOffset: 1
OS2Vendor: 'PfEd'
Lookup: 4 0 0 "shifts" { "shifts-1"  } ['calt' ('DFLT' <'dflt' > 'latn' <'dflt' > ) ]
Lookup: 258 0 0 "kerning" { "kerning" [76,7,0] } ['kern' ('DFLT' <'dflt' > 'grek' <'dflt' > 'latn' <'dflt' > ) ]
MarkAttachClasses: 1
DEI: 91125
KernClass2: 26 19 "kerning"
 1 a
 1 b
 17 c d j t eth theta
 1 e
 1 f
 3 g k
 1 h
 1 i
 1 l
 1 m
 1 n
 1 o
 1 p
 1 q
 1 r
 1 s
 1 u
 1 v
 1 w
 1 x
 1 y
 1 z
 3 eng
 15 small_capital_i
 7 upsilon
 1 a
 1 b
 25 c d e i j l n t eth theta
 1 f
 3 g k
 3 h q
 1 m
 1 o
 1 p
 1 r
 1 s
 1 u
 1 v
 1 w
 1 x
 25 y small_capital_i upsilon
 1 z
 3 eng

StartChar: y
Encoding: 121 121 0
Width: 232
VWidth: 0
Flags: W
HStem: 0 21G<189.662 195.458> 0 21G<189.662 195.458> 355.189 20G<191.213 195.297> 355.189 20G<191.213 195.297>
VStem: 137.803 29.2207<130.629 245.252>
LayerCount: 2
Fore
SplineSet
190.619140625 375.172851562 m 0xa8
 190.80859375 375.181640625 191.1171875 375.189453125 191.30859375 375.189453125 c 0
 199.28515625 375.189453125 205.759765625 368.71484375 205.759765625 360.73828125 c 0
 205.759765625 357.381835938 203.8125 352.75390625 201.4140625 350.407226562 c 2
 41.81640625 189.646484375 l 1
 201.4140625 25.181640625 l 2
 203.947265625 22.80078125 206.00390625 18.044921875 206.00390625 14.5673828125 c 0
 206.00390625 6.5263671875 199.478515625 0 191.4375 0 c 0
 187.88671875 0 183.0625 2.130859375 180.669921875 4.7548828125 c 2
 11.01953125 179.592773438 l 2
 8.80078125 181.907226562 7 186.387695312 7 189.59375 c 0
 7 192.799804688 8.80078125 197.28125 11.01953125 199.594726562 c 2
 181.09375 370.833007812 l 2
 183.2578125 373.052734375 187.525390625 374.997070312 190.619140625 375.172851562 c 0xa8
152.201171875 245.6328125 m 0
 152.302734375 245.635742188 152.46875 245.637695312 152.572265625 245.637695312 c 0
 160.548828125 245.637695312 167.0234375 239.1640625 167.0234375 231.186523438 c 0
 167.0234375 231.083984375 167.021484375 230.91796875 167.017578125 230.81640625 c 2
 167.017578125 144.7734375 l 2
 167.017578125 136.711914062 160.474609375 130.168945312 152.4140625 130.168945312 c 0
 144.3515625 130.168945312 137.80859375 136.711914062 137.80859375 144.7734375 c 2
 137.80859375 230.81640625 l 2
 137.806640625 230.916992188 137.802734375 231.081054688 137.802734375 231.181640625 c 0
 137.802734375 239.129882812 144.25390625 245.603515625 152.201171875 245.6328125 c 0
EndSplineSet
EndChar

StartChar: v
Encoding: 118 118 1
Width: 377
VWidth: 0
Flags: W
HStem: 0.0507812 28.8008<55.709 146.206 228.414 318.909> 354.594 20G<187.041 189.905> 354.594 20G<187.041 189.905>
LayerCount: 2
Fore
SplineSet
185.30859375 374.453125 m 0xc0
 185.861328125 374.530273438 186.76171875 374.59375 187.3203125 374.59375 c 0
 192.48828125 374.59375 198.396484375 370.766601562 200.5078125 366.051757812 c 2
 354.5078125 20.0517578125 l 2
 355.12109375 18.5810546875 355.6171875 16.0947265625 355.6171875 14.501953125 c 0
 355.6171875 6.603515625 349.20703125 0.1298828125 341.30859375 0.05078125 c 2
 243.708984375 0.05078125 l 2
 243.375 0.0224609375 242.830078125 0 242.494140625 0 c 0
 234.515625 0 228.04296875 6.474609375 228.04296875 14.451171875 c 0
 228.04296875 22.4287109375 234.515625 28.90234375 242.494140625 28.90234375 c 0
 242.830078125 28.90234375 243.375 28.8798828125 243.708984375 28.8515625 c 2
 318.908203125 28.8515625 l 1
 187.30859375 324.8515625 l 1
 55.708984375 28.8515625 l 1
 130.908203125 28.8515625 l 2
 131.244140625 28.8798828125 131.787109375 28.90234375 132.123046875 28.90234375 c 0
 140.1015625 28.90234375 146.576171875 22.4287109375 146.576171875 14.451171875 c 0
 146.576171875 6.474609375 140.1015625 0 132.123046875 0 c 0
 131.787109375 0 131.244140625 0.0224609375 130.908203125 0.05078125 c 2
 33.30859375 0.05078125 l 2
 25.41015625 0.1298828125 19 6.603515625 19 14.501953125 c 0
 19 16.0947265625 19.49609375 18.5810546875 20.109375 20.0517578125 c 2
 174.109375 366.051757812 l 2
 175.916015625 370.08203125 180.93359375 373.845703125 185.30859375 374.453125 c 0xc0
EndSplineSet
EndChar

StartChar: w
Encoding: 119 119 2
Width: 263
VWidth: 0
Flags: W
HStem: 0 21G<127.691 131.749> 0 21G<127.691 131.749> 172.785 28.8789<124.803 243.852> 354.542 20G<129.925 131.846> 354.542 20G<129.925 131.846>
LayerCount: 2
Fore
SplineSet
129.310546875 374.529296875 m 0xb0
 129.505859375 374.533203125 129.826171875 374.541992188 130.0234375 374.541992188 c 0
 133.668945312 374.541992188 138.563476562 372.3046875 140.94921875 369.548828125 c 2
 218.1015625 281.177734375 l 2
 220.099609375 278.895507812 221.720703125 274.581054688 221.720703125 271.547851562 c 0
 221.720703125 263.474609375 215.16796875 256.921875 207.094726562 256.921875 c 0
 203.431640625 256.921875 198.500976562 259.159179688 196.087890625 261.916992188 c 2
 132.059570312 336 l 1
 39.349609375 187.198242188 l 1
 132.059570312 38.7138671875 l 1
 196.087890625 112.374023438 l 2
 198.482421875 115.171875 203.413085938 117.442382812 207.094726562 117.442382812 c 0
 215.091796875 117.442382812 221.58203125 110.952148438 221.58203125 102.955078125 c 0
 221.58203125 100.000976562 220.022460938 95.78125 218.1015625 93.5361328125 c 2
 140.950195312 5.1474609375 l 2
 138.559570312 2.3056640625 133.60546875 0 129.891601562 0 c 0
 125.490234375 0 120.013671875 3.021484375 117.666992188 6.7451171875 c 2
 10.1396484375 179.571289062 l 2
 8.958984375 181.493164062 8 184.8828125 8 187.138671875 c 0
 8 189.39453125 8.958984375 192.784179688 10.1396484375 194.706054688 c 2
 118.08984375 367.53125 l 2
 120.000976562 370.682617188 124.504882812 373.716796875 128.143554688 374.3046875 c 0
 128.462890625 374.379882812 128.986328125 374.48046875 129.310546875 374.529296875 c 0xb0
136.931640625 201.598632812 m 0
 137.310546875 201.634765625 137.926757812 201.6640625 138.307617188 201.6640625 c 0
 138.688476562 201.6640625 139.3046875 201.634765625 139.68359375 201.598632812 c 2
 228.477539062 201.598632812 l 2
 228.833984375 201.629882812 229.413085938 201.65625 229.771484375 201.65625 c 0
 237.748046875 201.65625 244.22265625 195.181640625 244.22265625 187.205078125 c 0
 244.22265625 179.227539062 237.748046875 172.75390625 229.771484375 172.75390625 c 0
 229.413085938 172.75390625 228.833984375 172.779296875 228.477539062 172.811523438 c 2
 139.68359375 172.811523438 l 2
 139.444335938 172.796875 139.055664062 172.78515625 138.815429688 172.78515625 c 0
 130.829101562 172.78515625 124.34765625 179.267578125 124.34765625 187.25390625 c 0
 124.34765625 194.258789062 129.985351562 200.685546875 136.931640625 201.598632812 c 0
EndSplineSet
EndChar

StartChar: z
Encoding: 122 122 3
Width: 273
VWidth: 0
Flags: W
HStem: 0.0224609 28.8086<37.5988 233.757> 105.224 28.7861<65.79 204.537>
VStem: 37 28.793<134.01 381.59> 204.485 28.8906<134.01 382.525>
LayerCount: 2
Fore
SplineSet
218.295898438 382.9296875 m 0
 218.469726562 382.9375 218.750976562 382.943359375 218.924804688 382.943359375 c 0
 226.90234375 382.943359375 233.375976562 376.46875 233.375976562 368.4921875 c 0
 233.375976562 368.153320312 233.352539062 367.604492188 233.32421875 367.266601562 c 2
 233.32421875 119.616210938 l 2
 233.29296875 111.703125 226.844726562 105.254882812 218.930664062 105.223632812 c 2
 51.396484375 105.223632812 l 2
 43.4833984375 105.254882812 37.03515625 111.703125 37.0029296875 119.616210938 c 2
 37.0029296875 367.266601562 l 2
 37.001953125 367.3515625 37 367.489257812 37 367.57421875 c 0
 37 373.9296875 42.02734375 380.239257812 48.22265625 381.66015625 c 0
 49.0732421875 381.84765625 50.470703125 382 51.341796875 382 c 0
 59.318359375 382 65.79296875 375.526367188 65.79296875 367.548828125 c 0
 65.79296875 367.470703125 65.791015625 367.344726562 65.7900390625 367.266601562 c 2
 65.7900390625 134.009765625 l 1
 204.537109375 134.009765625 l 1
 204.537109375 367.266601562 l 2
 204.508789062 367.604492188 204.485351562 368.153320312 204.485351562 368.4921875 c 0
 204.485351562 376.123046875 210.672851562 382.590820312 218.295898438 382.9296875 c 0
220.517578125 28.9169921875 m 0
 228.063476562 28.4970703125 234.1875 22.025390625 234.1875 14.46875 c 0
 234.1875 6.4814453125 227.706054688 0 219.719726562 0 c 0
 219.499023438 0 219.140625 0.009765625 218.920898438 0.0224609375 c 2
 51.38671875 0.0224609375 l 2
 43.5283203125 0.1396484375 37.150390625 6.6123046875 37.150390625 14.4716796875 c 0
 37.150390625 21.50390625 42.8125 27.9267578125 49.7890625 28.80859375 c 0
 50.0087890625 28.8212890625 50.3671875 28.8310546875 50.587890625 28.8310546875 c 0
 50.80859375 28.8310546875 51.166015625 28.8212890625 51.38671875 28.80859375 c 2
 218.920898438 28.80859375 l 2
 219.359375 28.86328125 220.075195312 28.912109375 220.517578125 28.9169921875 c 0
EndSplineSet
EndChar

StartChar: m
Encoding: 109 109 4
Width: 292
VWidth: 0
Flags: W
HStem: 0 21G<176.233 181.646> 0 21G<176.233 181.646> 122.863 28.7803<67.2266 163.215 192.107 270.663> 222.869 28.793<67.2266 163.215 192.107 270.665> 354.853 20G<177.074 177.504> 354.853 20G<177.074 177.504>
VStem: 163.217 28.8906<44.8643 122.857 151.645 222.869 251.662 329.662>
LayerCount: 2
Fore
SplineSet
177.50390625 374.852539062 m 2xba
 177.50390625 374.842773438 l 2
 177.546875 374.842773438 177.6171875 374.842773438 177.662109375 374.842773438 c 0
 185.638671875 374.842773438 192.11328125 368.369140625 192.11328125 360.391601562 c 0
 192.11328125 360.291015625 192.111328125 360.125976562 192.107421875 360.025390625 c 2
 192.107421875 251.657226562 l 1
 255.291015625 251.657226562 l 2
 255.646484375 251.688476562 256.2265625 251.71484375 256.583984375 251.71484375 c 0
 264.560546875 251.71484375 271.03515625 245.240234375 271.03515625 237.263671875 c 0
 271.03515625 229.286132812 264.560546875 222.8125 256.583984375 222.8125 c 0
 256.2265625 222.8125 255.646484375 222.837890625 255.291015625 222.870117188 c 2
 192.107421875 222.870117188 l 1
 192.107421875 151.64453125 l 1
 255.291015625 151.64453125 l 2
 255.646484375 151.676757812 256.224609375 151.702148438 256.58203125 151.702148438 c 0
 264.560546875 151.702148438 271.033203125 145.228515625 271.033203125 137.250976562 c 0
 271.033203125 129.274414062 264.560546875 122.799804688 256.58203125 122.799804688 c 0
 256.224609375 122.799804688 255.646484375 122.826171875 255.291015625 122.857421875 c 2
 192.107421875 122.857421875 l 1
 192.107421875 14.484375 l 2
 192.107421875 14.4755859375 192.107421875 14.4599609375 192.107421875 14.451171875 c 0
 192.107421875 6.474609375 185.634765625 0 177.65625 0 c 0
 174.810546875 0 170.7109375 1.462890625 168.5078125 3.265625 c 2
 17.271484375 126.032226562 l 2
 14.361328125 128.424804688 12 133.424804688 12 137.192382812 c 0
 12 145.169921875 18.474609375 151.643554688 26.451171875 151.643554688 c 0
 26.458984375 151.643554688 26.470703125 151.643554688 26.478515625 151.643554688 c 2
 163.21484375 151.643554688 l 1
 163.21484375 222.869140625 l 1
 26.478515625 222.869140625 l 2
 26.47265625 222.869140625 26.458984375 222.869140625 26.451171875 222.869140625 c 0
 18.474609375 222.869140625 12 229.34375 12 237.3203125 c 0
 12 241.087890625 14.361328125 246.087890625 17.271484375 248.481445312 c 2
 168.5078125 371.248046875 l 2
 169.93359375 372.514648438 172.587890625 373.9375 174.43359375 374.421875 c 0
 175.26953125 374.631835938 176.64453125 374.825195312 177.50390625 374.852539062 c 2xba
163.216796875 329.662109375 m 1
 67.2265625 251.662109375 l 1
 163.216796875 251.662109375 l 1
 163.216796875 329.662109375 l 1
67.2265625 122.86328125 m 1
 163.216796875 44.8642578125 l 1
 163.216796875 122.86328125 l 1
 67.2265625 122.86328125 l 1
EndSplineSet
EndChar

StartChar: o
Encoding: 111 111 5
Width: 229
VWidth: 0
Flags: W
HStem: 0.0546875 21G<175.424 180.857> 0.0546875 21G<175.424 180.857> 124.55 28.7998<66.4561 162.456> 221.749 28.7998<66.4561 162.456> 355.119 20G<176.765 181.061> 355.119 20G<176.765 181.061>
VStem: 162.456 28.7988<153.35 221.749>
LayerCount: 2
Fore
SplineSet
174.857421875 374.950195312 m 0xba
 175.463867188 375.04296875 176.45703125 375.119140625 177.072265625 375.119140625 c 0
 185.049804688 375.119140625 191.5234375 368.645507812 191.5234375 360.66796875 c 0
 191.5234375 356.815429688 189.07421875 351.744140625 186.055664062 349.348632812 c 2
 66.4560546875 250.548828125 l 1
 176.85546875 250.548828125 l 2
 184.776367188 250.520507812 191.2265625 244.069335938 191.254882812 236.149414062 c 2
 191.254882812 138.94921875 l 2
 191.2265625 131.028320312 184.776367188 124.577148438 176.85546875 124.549804688 c 2
 66.4560546875 124.549804688 l 1
 186.055664062 25.7490234375 l 2
 188.978515625 23.3486328125 191.350585938 18.3310546875 191.350585938 14.548828125 c 0
 191.350585938 6.548828125 184.857421875 0.0546875 176.856445312 0.0546875 c 0
 173.991210938 0.0546875 169.870117188 1.53125 167.65625 3.349609375 c 2
 17.2568359375 127.749023438 l 2
 14.35546875 130.142578125 12 135.13671875 12 138.8984375 c 0
 12 146.875 18.474609375 153.349609375 26.451171875 153.349609375 c 0
 26.453125 153.349609375 26.455078125 153.349609375 26.4560546875 153.349609375 c 2
 162.456054688 153.349609375 l 1
 162.456054688 221.749023438 l 1
 26.4560546875 221.749023438 l 2
 18.728515625 221.991210938 12.45703125 228.461914062 12.45703125 236.193359375 c 0
 12.45703125 239.752929688 14.607421875 244.572265625 17.2568359375 246.94921875 c 2
 167.65625 371.749023438 l 2
 169.393554688 373.196289062 172.619140625 374.629882812 174.857421875 374.950195312 c 0xba
EndSplineSet
EndChar

StartChar: b
Encoding: 98 98 6
Width: 409
VWidth: 0
Flags: W
HStem: 0.0898438 28.7998<186.49 350.49> 354.928 20G<203.395 206.016> 354.928 20G<203.395 206.016>
VStem: 19 27.4902<0.37124 8.08984> 199.29 28.1494<120.09 129.565>
LayerCount: 2
Fore
SplineSet
202.489257812 374.889648438 m 0xd8
 202.779296875 374.91015625 203.25 374.927734375 203.540039062 374.927734375 c 0
 208.491210938 374.927734375 214.29296875 371.327148438 216.490234375 366.889648438 c 2
 386.889648438 20.8896484375 l 2
 387.701171875 19.2314453125 388.359375 16.38671875 388.359375 14.5400390625 c 0
 388.359375 6.6630859375 381.966796875 0.189453125 374.08984375 0.08984375 c 2
 163.290039062 0.08984375 l 2
 155.413085938 0.189453125 149.020507812 6.6630859375 149.020507812 14.5400390625 c 0
 149.020507812 16.38671875 149.678710938 19.2314453125 150.490234375 20.8896484375 c 2
 199.290039062 120.08984375 l 2
 201.116210938 125.526367188 207.25390625 129.938476562 212.98828125 129.938476562 c 0
 220.965820312 129.938476562 227.439453125 123.46484375 227.439453125 115.487304688 c 0
 227.439453125 113.005859375 226.297851562 109.333984375 224.889648438 107.290039062 c 2
 186.490234375 28.8896484375 l 1
 350.490234375 28.8896484375 l 1
 203.689453125 328.08984375 l 1
 46.490234375 8.08984375 l 2
 44.291015625 3.6240234375 38.4677734375 0 33.490234375 0 c 0
 25.4912109375 0 19 6.4912109375 19 14.490234375 c 0
 19 16.3525390625 19.6669921875 19.2197265625 20.490234375 20.8896484375 c 2
 190.889648438 366.889648438 l 2
 192.858398438 370.885742188 198.055664062 374.469726562 202.489257812 374.889648438 c 0xd8
EndSplineSet
EndChar

StartChar: c
Encoding: 99 99 7
Width: 347
VWidth: 0
Flags: W
HStem: 0 21G<47.4629 55.4404 289.063 297.041> 0 21G<47.4629 55.4404 289.063 297.041> 358.581 20G<51.3994 53.7139 290.892 296.992>
VStem: 37 28.9023<0.370235 317.667> 278.6 28.9043<0.370235 317.667>
LayerCount: 2
Fore
SplineSet
49.8515625 378.466796875 m 0xb8
 50.345703125 378.530273438 51.150390625 378.581054688 51.6484375 378.581054688 c 0
 55.779296875 378.581054688 61.068359375 375.841796875 63.451171875 372.467773438 c 2
 172.251953125 213.66796875 l 1
 281.05078125 372.467773438 l 2
 283.42578125 375.9609375 288.779296875 378.794921875 293.00390625 378.794921875 c 0
 300.98046875 378.794921875 307.455078125 372.321289062 307.455078125 364.34375 c 0
 307.455078125 364.267578125 307.453125 364.143554688 307.451171875 364.067382812 c 2
 307.451171875 15.6669921875 l 2
 307.48046875 15.33203125 307.50390625 14.787109375 307.50390625 14.451171875 c 0
 307.50390625 6.4736328125 301.029296875 0 293.052734375 0 c 0
 285.07421875 0 278.599609375 6.4736328125 278.599609375 14.451171875 c 0
 278.599609375 14.787109375 278.623046875 15.33203125 278.65234375 15.6669921875 c 2
 278.65234375 317.666992188 l 1
 184.251953125 179.666992188 l 2
 181.880859375 176.134765625 176.505859375 173.267578125 172.251953125 173.267578125 c 0
 167.998046875 173.267578125 162.62109375 176.134765625 160.251953125 179.666992188 c 2
 65.8515625 317.666992188 l 1
 65.8515625 15.6669921875 l 2
 65.880859375 15.33203125 65.90234375 14.787109375 65.90234375 14.451171875 c 0
 65.90234375 6.4736328125 59.4296875 0 51.451171875 0 c 0
 43.474609375 0 37 6.4736328125 37 14.451171875 c 0
 37 14.787109375 37.0234375 15.33203125 37.05078125 15.6669921875 c 2
 37.05078125 364.067382812 l 2
 37.05078125 364.079101562 37.05078125 364.09765625 37.05078125 364.110351562 c 0
 37.05078125 371.221679688 42.78515625 377.654296875 49.8515625 378.466796875 c 0xb8
EndSplineSet
EndChar

StartChar: j
Encoding: 106 106 8
Width: 346
VWidth: 0
Flags: W
HStem: 0 21G<47.5039 53.5674 290.845 296.909> 0 21G<47.5039 53.5674 290.845 296.909> 357.608 20G<51.1465 55.3496 289.018 296.995>
VStem: 37 28.8125<61.124 377.234> 278.605 28.8008<61.124 378.02>
LayerCount: 2
Fore
SplineSet
49.806640625 377.524414062 m 0xb8
 50.234375 377.571289062 50.931640625 377.608398438 51.361328125 377.608398438 c 0
 59.337890625 377.608398438 65.8125 371.134765625 65.8125 363.157226562 c 0
 65.8125 363.038085938 65.810546875 362.84375 65.806640625 362.723632812 c 2
 65.806640625 61.1240234375 l 1
 160.20703125 199.124023438 l 2
 162.576171875 202.65625 167.953125 205.522460938 172.20703125 205.522460938 c 0
 176.4609375 205.522460938 181.8359375 202.65625 184.20703125 199.124023438 c 2
 278.60546875 61.1240234375 l 1
 278.60546875 362.723632812 l 2
 278.578125 363.05859375 278.5546875 363.603515625 278.5546875 363.939453125 c 0
 278.5546875 371.916015625 285.029296875 378.390625 293.005859375 378.390625 c 0
 300.984375 378.390625 307.45703125 371.916015625 307.45703125 363.939453125 c 0
 307.45703125 363.603515625 307.435546875 363.05859375 307.40625 362.723632812 c 2
 307.40625 14.3232421875 l 2
 307.3359375 6.4169921875 300.86328125 0 292.955078125 0 c 0
 288.734375 0 283.380859375 2.8330078125 281.005859375 6.32421875 c 2
 172.20703125 165.124023438 l 1
 63.40625 6.32421875 l 2
 61.03125 2.8330078125 55.677734375 0 51.45703125 0 c 0
 43.55078125 0 37.076171875 6.4169921875 37.005859375 14.3232421875 c 2
 37.005859375 362.723632812 l 2
 37.001953125 362.845703125 37 363.044921875 37 363.166992188 c 0
 37 370.283203125 42.736328125 376.71484375 49.806640625 377.524414062 c 0xb8
EndSplineSet
EndChar

StartChar: g
Encoding: 103 103 9
Width: 327
VWidth: 0
Flags: W
HStem: 0 29.2002<69.5527 258.354> 355.205 20G<41.4922 43.6758 284.091 290.149> 355.205 20G<41.4922 43.6758 284.091 290.149>
LayerCount: 2
Fore
SplineSet
41.15234375 375.200195312 m 0xc0
 41.259765625 375.203125 41.4375 375.205078125 41.546875 375.205078125 c 0
 45.8046875 375.205078125 51.181640625 372.3359375 53.55078125 368.799804688 c 2
 163.951171875 212.399414062 l 1
 274.3515625 368.799804688 l 2
 276.7421875 372.158203125 282.029296875 374.884765625 286.15234375 374.884765625 c 0
 294.146484375 374.884765625 300.63671875 368.395507812 300.63671875 360.399414062 c 0
 300.63671875 357.844726562 299.43359375 354.08203125 297.951171875 352 c 2
 181.552734375 187.599609375 l 1
 297.951171875 22.7998046875 l 2
 299.41796875 20.728515625 300.607421875 16.98828125 300.607421875 14.4501953125 c 0
 300.607421875 6.580078125 294.220703125 0.1064453125 286.3515625 0 c 2
 41.552734375 0 l 2
 33.681640625 0.1064453125 27.294921875 6.580078125 27.294921875 14.4501953125 c 0
 27.294921875 16.98828125 28.486328125 20.728515625 29.951171875 22.7998046875 c 2
 146.3515625 187.599609375 l 1
 29.951171875 352 l 2
 28.322265625 354.140625 27 358.061523438 27 360.751953125 c 0
 27 368.565429688 33.33984375 375.038085938 41.15234375 375.200195312 c 0xc0
163.953125 162.399414062 m 1
 69.552734375 29.2001953125 l 1
 258.353515625 29.2001953125 l 1
 163.953125 162.399414062 l 1
EndSplineSet
EndChar

StartChar: a
Encoding: 97 97 10
Width: 217
VWidth: 0
Flags: W
HStem: 0 21G<175.54 180.696> 0 21G<175.54 180.696> 354.201 20G<176.148 180.464> 354.201 20G<176.148 180.464>
LayerCount: 2
Fore
SplineSet
174.046875 373.993164062 m 0xa0
 174.715820312 374.108398438 175.809570312 374.201171875 176.487304688 374.201171875 c 0
 184.440429688 374.201171875 190.89453125 367.747070312 190.89453125 359.794921875 c 0
 190.89453125 355.171875 187.634765625 349.563476562 183.6171875 347.275390625 c 2
 52.8173828125 271.108398438 l 1
 152.513671875 198.9296875 l 2
 155.875 196.552734375 158.603515625 191.282226562 158.603515625 187.165039062 c 0
 158.603515625 183.047851562 155.875 177.778320312 152.513671875 175.401367188 c 2
 52.818359375 103.62109375 l 1
 183.618164062 27.0546875 l 2
 187.762695312 24.794921875 191.126953125 19.1279296875 191.126953125 14.4072265625 c 0
 191.126953125 6.4541015625 184.671875 0 176.719726562 0 c 0
 174.360351562 0 170.83984375 1.0439453125 168.862304688 2.3310546875 c 2
 19.3203125 89.6640625 l 2
 15.279296875 91.9462890625 12 97.56640625 12 102.20703125 c 0
 12 106.334960938 14.740234375 111.61328125 18.115234375 113.989257812 c 2
 119.405273438 187.365234375 l 1
 18.115234375 260.340820312 l 2
 14.740234375 262.716796875 12 267.995117188 12 272.123046875 c 0
 12 276.764648438 15.279296875 282.383789062 19.3203125 284.666992188 c 2
 168.862304688 371.9921875 l 2
 170.184570312 372.826171875 172.5078125 373.72265625 174.046875 373.993164062 c 0xa0
EndSplineSet
EndChar

StartChar: e
Encoding: 101 101 11
Width: 227
VWidth: 0
Flags: W
HStem: 0 21G<47.5151 52.7192> 0 21G<47.5151 52.7192> 354.256 20.0156G<46.854 50.6006 51.4658 52.9194> 354.256 20.0156G<46.854 50.6006 51.4658 52.9194>
VStem: 37 28.7998<43.0469 331.047>
LayerCount: 2
Fore
SplineSet
50.6005859375 374.255859375 m 6xa8
 50.6005859375 374.236328125 l 6
 50.8779296875 374.255859375 51.3271484375 374.271484375 51.6044921875 374.271484375 c 4
 54.234375 374.271484375 58.0859375 373.001953125 60.2001953125 371.4375 c 6
 136.599609375 314.63671875 l 5
 182.600585938 347.037109375 l 6
 184.681640625 348.51953125 188.4453125 349.721679688 191 349.721679688 c 4
 198.995117188 349.721679688 205.484375 343.232421875 205.484375 335.237304688 c 4
 205.484375 331.114257812 202.758789062 325.828125 199.399414062 323.4375 c 6
 144.599609375 284.63671875 l 6
 142.572265625 283.26171875 138.9375 282.14453125 136.486328125 282.14453125 c 4
 133.821289062 282.14453125 129.9296875 283.4453125 127.799804688 285.046875 c 6
 65.7998046875 331.046875 l 5
 65.7998046875 43.046875 l 5
 127.799804688 88.646484375 l 6
 129.9296875 90.2490234375 133.821289062 91.548828125 136.486328125 91.548828125 c 4
 138.9375 91.548828125 142.572265625 90.4326171875 144.599609375 89.056640625 c 6
 199.399414062 50.2568359375 l 6
 202.758789062 47.865234375 205.484375 42.5791015625 205.484375 38.4560546875 c 4
 205.484375 30.4609375 198.995117188 23.9716796875 191 23.9716796875 c 4
 188.4453125 23.9716796875 184.681640625 25.1748046875 182.600585938 26.65625 c 6
 136.599609375 59.056640625 l 5
 59.7998046875 2.65625 l 6
 57.728515625 1.1904296875 53.98828125 0 51.4501953125 0 c 4
 43.580078125 0 37.1064453125 6.38671875 37 14.255859375 c 6
 37 359.856445312 l 6
 37.013671875 367.36328125 43.107421875 373.814453125 50.6005859375 374.255859375 c 6xa8
EndSplineSet
EndChar

StartChar: d
Encoding: 100 100 12
Width: 292
VWidth: 0
Flags: W
HStem: 0 28.7998<65.8027 223.803>
VStem: 37 28.8047<28.7998 381.528> 223.803 28.7988<28.7998 382.496>
LayerCount: 2
Fore
SplineSet
48.203125 381.598632812 m 2
 48.201171875 381.598632812 l 2
 49.060546875 381.791015625 50.47265625 381.947265625 51.353515625 381.947265625 c 0
 59.330078125 381.947265625 65.8046875 375.47265625 65.8046875 367.49609375 c 0
 65.8046875 367.4140625 65.802734375 367.28125 65.802734375 367.19921875 c 2
 65.802734375 28.7998046875 l 1
 223.802734375 28.7998046875 l 1
 223.802734375 367.19921875 l 2
 223.7734375 367.534179688 223.75 368.079101562 223.75 368.415039062 c 0
 223.75 376.392578125 230.224609375 382.866210938 238.201171875 382.866210938 c 0
 246.1796875 382.866210938 252.65234375 376.392578125 252.65234375 368.415039062 c 0
 252.65234375 368.079101562 252.630859375 367.534179688 252.6015625 367.19921875 c 2
 252.6015625 14.3994140625 l 2
 252.57421875 6.4794921875 246.123046875 0.0283203125 238.203125 0 c 2
 51.40234375 0 l 2
 43.482421875 0.0283203125 37.03125 6.4794921875 37.00390625 14.3994140625 c 2
 37.00390625 367.19921875 l 2
 37.001953125 367.287109375 37 367.4296875 37 367.517578125 c 0
 37 373.864257812 42.01953125 380.172851562 48.203125 381.598632812 c 2
EndSplineSet
EndChar

StartChar: f
Encoding: 102 102 13
Width: 377
VWidth: 0
Flags: W
HStem: 0 21G<184.911 190.09> 0 21G<184.911 190.09> 346.175 28.7998<55.502 146.397 229.759 319.498>
LayerCount: 2
Fore
SplineSet
32.30078125 374.96484375 m 2xa0
 32.29296875 374.974609375 l 2
 32.458984375 374.981445312 32.73046875 374.987304688 32.896484375 374.987304688 c 0
 33.064453125 374.987304688 33.333984375 374.981445312 33.501953125 374.974609375 c 2
 131.099609375 374.974609375 l 2
 131.435546875 375.002929688 131.98046875 375.025390625 132.31640625 375.025390625 c 0
 140.29296875 375.025390625 146.767578125 368.551757812 146.767578125 360.575195312 c 0
 146.767578125 352.59765625 140.29296875 346.124023438 132.31640625 346.124023438 c 0
 131.98046875 346.124023438 131.435546875 346.146484375 131.099609375 346.174804688 c 2
 55.501953125 346.174804688 l 1
 187.5 50.177734375 l 1
 319.498046875 346.174804688 l 1
 243.8984375 345.765625 l 2
 235.83984375 345.765625 229.298828125 352.305664062 229.298828125 360.365234375 c 0
 229.298828125 368.423828125 235.83984375 374.96484375 243.8984375 374.96484375 c 2
 341.5 374.96484375 l 2
 341.5078125 374.96484375 341.521484375 374.96484375 341.529296875 374.96484375 c 0
 349.505859375 374.96484375 355.98046875 368.491210938 355.98046875 360.513671875 c 0
 355.98046875 358.795898438 355.40625 356.130859375 354.69921875 354.565429688 c 2
 200.701171875 8.5693359375 l 2
 198.591796875 3.8388671875 192.6796875 0 187.5 0 c 0
 182.322265625 0 176.408203125 3.8388671875 174.30078125 8.5693359375 c 2
 20.302734375 354.565429688 l 2
 19.583984375 356.141601562 19 358.827148438 19 360.559570312 c 0
 19 367.92578125 24.958984375 374.37890625 32.30078125 374.96484375 c 2xa0
EndSplineSet
EndChar

StartChar: h
Encoding: 104 104 14
Width: 327
VWidth: 0
Flags: W
HStem: -0.0429688 21G<161.359 167.812> -0.0429688 21G<161.359 167.812> 172.126 30.8008<148.955 255.371> 354.933 20G<163.351 165.674> 354.933 20G<163.351 165.674>
LayerCount: 2
Fore
SplineSet
162.969726562 374.92578125 m 4xb0
 163.092773438 374.9296875 163.290039062 374.932617188 163.412109375 374.932617188 c 4
 167.935546875 374.932617188 173.651367188 371.883789062 176.169921875 368.126953125 c 6
 297.370117188 196.126953125 l 6
 298.838867188 193.967773438 300.03125 190.096679688 300.03125 187.485351562 c 4
 300.03125 179.168945312 293.284179688 172.2890625 284.969726562 172.125976562 c 6
 163.76953125 172.125976562 l 6
 155.268554688 172.125976562 148.370117188 179.025390625 148.370117188 187.526367188 c 4
 148.370117188 196.02734375 155.268554688 202.926757812 163.76953125 202.926757812 c 6
 255.37109375 202.926757812 l 5
 163.770507812 332.526367188 l 5
 61.3701171875 187.326171875 l 5
 176.170898438 24.1259765625 l 6
 177.69921875 21.9384765625 178.939453125 17.9951171875 178.939453125 15.326171875 c 4
 178.939453125 6.8427734375 172.0546875 -0.04296875 163.5703125 -0.04296875 c 4
 159.147460938 -0.04296875 153.502929688 2.900390625 150.970703125 6.5263671875 c 6
 29.7705078125 178.525390625 l 6
 28.2412109375 180.713867188 27 184.65625 27 187.326171875 c 4
 27 189.99609375 28.2412109375 193.938476562 29.7705078125 196.125976562 c 6
 150.970703125 368.125976562 l 6
 153.33984375 371.666992188 158.71484375 374.712890625 162.969726562 374.92578125 c 4xb0
EndSplineSet
EndChar

StartChar: l
Encoding: 108 108 15
Width: 260
VWidth: 0
Flags: W
HStem: 0.0576172 28.7871<66.2109 233.241> 345.604 28.7871<66.2109 233.243>
VStem: 37 29.2109<28.8447 345.604> 136.59 28.9023<75.9826 298.886>
LayerCount: 2
Fore
SplineSet
50.341796875 374.498046875 m 0
 50.75 374.490234375 51.412109375 374.44140625 51.81640625 374.390625 c 2
 217.869140625 374.390625 l 2
 218.224609375 374.422851562 218.8046875 374.448242188 219.162109375 374.448242188 c 0
 227.138671875 374.448242188 233.61328125 367.974609375 233.61328125 359.997070312 c 0
 233.61328125 352.020507812 227.138671875 345.545898438 219.162109375 345.545898438 c 0
 218.8046875 345.545898438 218.224609375 345.572265625 217.869140625 345.603515625 c 2
 66.2109375 345.603515625 l 1
 66.2109375 28.8447265625 l 1
 217.87109375 28.8447265625 l 2
 218.224609375 28.876953125 218.802734375 28.90234375 219.16015625 28.90234375 c 0
 227.13671875 28.90234375 233.611328125 22.4287109375 233.611328125 14.451171875 c 0
 233.611328125 6.474609375 227.13671875 0 219.16015625 0 c 0
 218.802734375 0 218.224609375 0.0263671875 217.87109375 0.0576171875 c 2
 51.818359375 0.0576171875 l 2
 51.716796875 0.0556640625 51.552734375 0.052734375 51.451171875 0.052734375 c 0
 43.50390625 0.052734375 37.029296875 6.50390625 37 14.451171875 c 2
 37.4296875 359.997070312 l 2
 37.4296875 360.056640625 37.4296875 360.154296875 37.4296875 360.21484375 c 0
 37.4296875 366.766601562 42.64453125 373.1171875 49.072265625 374.390625 c 0
 49.419921875 374.435546875 49.990234375 374.484375 50.341796875 374.498046875 c 0
150.671875 299.250976562 m 0
 150.7734375 299.25390625 150.939453125 299.255859375 151.041015625 299.255859375 c 0
 159.017578125 299.255859375 165.4921875 292.782226562 165.4921875 284.8046875 c 0
 165.4921875 284.703125 165.490234375 284.536132812 165.48828125 284.434570312 c 2
 165.48828125 90.44140625 l 2
 165.490234375 90.3369140625 165.4921875 90.16796875 165.4921875 90.0634765625 c 0
 165.4921875 82.0869140625 159.01953125 75.6123046875 151.041015625 75.6123046875 c 0
 143.064453125 75.6123046875 136.58984375 82.0869140625 136.58984375 90.0634765625 c 0
 136.58984375 90.16796875 136.591796875 90.3369140625 136.595703125 90.44140625 c 2
 136.595703125 284.43359375 l 2
 136.591796875 284.536132812 136.58984375 284.702148438 136.58984375 284.8046875 c 0
 136.58984375 292.580078125 142.8984375 299.051757812 150.671875 299.250976562 c 0
EndSplineSet
EndChar

StartChar: p
Encoding: 112 112 16
Width: 410
VWidth: 0
Flags: W
HStem: 0 21G<201.471 206.296> 0 21G<201.471 206.296> 345.344 29.1992<186.684 350.684>
VStem: 19 27.6836<366.144 374.191> 199.483 28.1504<245.068 254.543>
LayerCount: 2
Fore
SplineSet
32.6826171875 374.54296875 m 0xb8
 32.921875 374.55859375 33.30859375 374.5703125 33.5478515625 374.5703125 c 0
 38.6650390625 374.5703125 44.5498046875 370.794921875 46.68359375 366.143554688 c 2
 203.883789062 46.54296875 l 1
 350.68359375 345.34375 l 1
 186.68359375 345.34375 l 1
 225.083007812 267.342773438 l 2
 226.491210938 265.299804688 227.633789062 261.626953125 227.633789062 259.145507812 c 0
 227.633789062 251.168945312 221.159179688 244.694335938 213.181640625 244.694335938 c 0
 207.447265625 244.694335938 201.310546875 249.106445312 199.483398438 254.54296875 c 2
 150.68359375 353.743164062 l 2
 149.872070312 355.40234375 149.213867188 358.247070312 149.213867188 360.09375 c 0
 149.213867188 367.970703125 155.606445312 374.444335938 163.483398438 374.54296875 c 2
 374.283203125 374.54296875 l 2
 374.2890625 374.54296875 374.298828125 374.54296875 374.3046875 374.54296875 c 0
 382.282226562 374.54296875 388.755859375 368.069335938 388.755859375 360.091796875 c 0
 388.755859375 358.115234375 388.006835938 355.091796875 387.083984375 353.34375 c 2
 216.68359375 7.7431640625 l 2
 214.443359375 3.46875 208.708984375 0 203.883789062 0 c 0
 199.057617188 0 193.323242188 3.46875 191.083007812 7.7431640625 c 2
 20.68359375 353.34375 l 2
 19.75390625 355.095703125 19 358.12890625 19 360.112304688 c 0
 19 367.67578125 25.1298828125 374.141601562 32.6826171875 374.54296875 c 0xb8
EndSplineSet
EndChar

StartChar: q
Encoding: 113 113 17
Width: 327
VWidth: 0
Flags: W
HStem: -0.0429688 21G<163.351 165.674> -0.0429688 21G<163.351 165.674> 171.963 30.7998<148.955 255.371> 354.933 20G<161.359 167.812> 354.933 20G<161.359 167.812>
LayerCount: 2
Fore
SplineSet
162.969726562 -0.0361328125 m 0xb0
 158.71484375 0.1767578125 153.33984375 3.22265625 150.970703125 6.7626953125 c 2
 29.7705078125 178.762695312 l 2
 28.2412109375 180.951171875 27 184.893554688 27 187.563476562 c 0
 27 190.233398438 28.2412109375 194.17578125 29.7705078125 196.36328125 c 2
 150.970703125 368.36328125 l 2
 153.502929688 371.989257812 159.147460938 374.932617188 163.5703125 374.932617188 c 0
 172.0546875 374.932617188 178.939453125 368.046875 178.939453125 359.563476562 c 0
 178.939453125 356.893554688 177.69921875 352.951171875 176.170898438 350.762695312 c 2
 61.3701171875 187.563476562 l 1
 163.770507812 42.36328125 l 1
 255.37109375 171.962890625 l 1
 163.76953125 171.962890625 l 2
 155.268554688 171.962890625 148.370117188 178.862304688 148.370117188 187.36328125 c 0
 148.370117188 195.864257812 155.268554688 202.762695312 163.76953125 202.762695312 c 2
 284.969726562 202.762695312 l 2
 293.284179688 202.600585938 300.03125 195.719726562 300.03125 187.404296875 c 0
 300.03125 184.79296875 298.838867188 180.921875 297.370117188 178.762695312 c 2
 176.169921875 6.7626953125 l 2
 173.651367188 3.005859375 167.935546875 -0.04296875 163.412109375 -0.04296875 c 0
 163.290039062 -0.04296875 163.092773438 -0.0400390625 162.969726562 -0.0361328125 c 0xb0
EndSplineSet
EndChar

StartChar: u
Encoding: 117 117 18
Width: 211
VWidth: 0
Flags: W
HStem: 0 21G<107.419 111.937> 0 21G<107.419 111.937> 354.814 20G<109.531 111.939> 354.814 20G<109.531 111.939>
LayerCount: 2
Fore
SplineSet
108.880859375 374.794921875 m 0xa0
 109.088867188 374.805664062 109.426757812 374.814453125 109.634765625 374.814453125 c 0
 114.243164062 374.814453125 119.8515625 371.575195312 122.153320312 367.583007812 c 2
 187.239257812 254.662109375 l 2
 188.353515625 252.782226562 189.2578125 249.481445312 189.2578125 247.295898438 c 0
 189.2578125 239.319335938 182.783203125 232.844726562 174.806640625 232.844726562 c 0
 170.1328125 232.844726562 164.485351562 236.153320312 162.200195312 240.23046875 c 2
 109.146484375 332.283203125 l 1
 45.6328125 230.500976562 l 1
 98.73046875 199.969726562 l 2
 102.728515625 197.668945312 105.974609375 192.057617188 105.974609375 187.444335938 c 0
 105.974609375 182.833984375 102.732421875 177.224609375 98.73828125 174.922851562 c 2
 45.6552734375 144.384765625 l 1
 109.146484375 42.5439453125 l 1
 162.200195312 134.655273438 l 2
 164.47265625 138.7890625 170.146484375 142.14453125 174.864257812 142.14453125 c 0
 182.840820312 142.14453125 189.315429688 135.669921875 189.315429688 127.693359375 c 0
 189.315429688 125.473632812 188.385742188 122.130859375 187.239257812 120.23046875 c 2
 122.153320312 7.236328125 l 2
 119.8515625 3.2421875 114.2421875 0 109.631835938 0 c 0
 105.20703125 0 99.71484375 3.046875 97.3720703125 6.80078125 c 2
 13.2119140625 141.80078125 l 2
 12.0048828125 143.737304688 11.025390625 147.161132812 11.025390625 149.443359375 c 0
 11.025390625 154.055664062 14.2705078125 159.666992188 18.2685546875 161.967773438 c 2
 62.5517578125 187.443359375 l 1
 18.24609375 212.91796875 l 2
 14.24609375 215.21875 11 220.830078125 11 225.444335938 c 0
 11 227.728515625 11.98046875 231.154296875 13.189453125 233.092773438 c 2
 97.3720703125 368.01171875 l 2
 99.5732421875 371.5390625 104.728515625 374.578125 108.880859375 374.794921875 c 0xa0
EndSplineSet
EndChar

StartChar: x
Encoding: 120 120 19
Width: 345
VWidth: 0
Flags: W
HStem: 0.0576172 28.7988<37.0047 156.495 185.282 306.7> 346.134 28.7861<64.8447 276.829>
VStem: 36 28.9023<129.148 346.134> 156.488 28.8008<28.8447 265.834> 276.823 28.9033<130.063 346.134>
LayerCount: 2
Fore
SplineSet
47.69921875 374.919921875 m 0
 48.078125 374.956054688 48.6943359375 374.986328125 49.0751953125 374.986328125 c 0
 49.4560546875 374.986328125 50.072265625 374.956054688 50.451171875 374.919921875 c 2
 291.328125 374.919921875 l 2
 299.241210938 374.888671875 305.689453125 368.440429688 305.720703125 360.526367188 c 2
 305.720703125 144.521484375 l 2
 305.723632812 144.416992188 305.7265625 144.247070312 305.7265625 144.143554688 c 0
 305.7265625 136.166015625 299.251953125 129.692382812 291.275390625 129.692382812 c 0
 283.297851562 129.692382812 276.823242188 136.166015625 276.823242188 144.143554688 c 0
 276.823242188 144.247070312 276.826171875 144.416992188 276.829101562 144.521484375 c 2
 276.829101562 346.133789062 l 1
 64.8447265625 346.133789062 l 1
 64.8447265625 144.521484375 l 2
 64.876953125 144.165039062 64.90234375 143.5859375 64.90234375 143.228515625 c 0
 64.90234375 135.251953125 58.4287109375 128.77734375 50.451171875 128.77734375 c 0
 42.474609375 128.77734375 36 135.251953125 36 143.228515625 c 0
 36 143.5859375 36.0263671875 144.165039062 36.0576171875 144.521484375 c 2
 36.0576171875 360.526367188 l 2
 36.056640625 360.586914062 36.056640625 360.684570312 36.056640625 360.744140625 c 0
 36.056640625 367.295898438 41.2724609375 373.646484375 47.69921875 374.919921875 c 0
169.30078125 266.124023438 m 0
 169.723632812 266.168945312 170.412109375 266.205078125 170.837890625 266.205078125 c 0
 178.814453125 266.205078125 185.2890625 259.731445312 185.2890625 251.75390625 c 0
 185.2890625 251.630859375 185.28515625 251.4296875 185.282226562 251.306640625 c 2
 185.282226562 28.8447265625 l 1
 291.327148438 28.8447265625 l 2
 291.682617188 28.876953125 292.26171875 28.90234375 292.619140625 28.90234375 c 0
 300.595703125 28.90234375 307.0703125 22.4287109375 307.0703125 14.451171875 c 0
 307.0703125 6.474609375 300.595703125 0 292.619140625 0 c 0
 292.26171875 0 291.682617188 0.0263671875 291.327148438 0.0576171875 c 2
 50.4501953125 0.0576171875 l 2
 42.787109375 0.359375 36.5673828125 6.828125 36.5673828125 14.498046875 c 0
 36.5673828125 21.568359375 42.263671875 27.9951171875 49.283203125 28.8447265625 c 0
 49.4443359375 28.8515625 49.705078125 28.8564453125 49.8662109375 28.8564453125 c 0
 50.02734375 28.8564453125 50.2890625 28.8515625 50.4501953125 28.8447265625 c 2
 156.495117188 28.8447265625 l 1
 156.495117188 251.306640625 l 2
 156.491210938 251.432617188 156.48828125 251.638671875 156.48828125 251.765625 c 0
 156.48828125 258.884765625 162.228515625 265.31640625 169.30078125 266.124023438 c 0
EndSplineSet
EndChar

StartChar: n
Encoding: 110 110 20
Width: 270
VWidth: 0
Flags: W
HStem: 0 21G<47.4624 53.582> 0 21G<47.4624 53.582> 355.242 20G<50.6816 51.082 51.436 53.6108> 355.242 20G<50.6816 51.082 51.436 53.6108>
VStem: 37.0068 28.7852<62.0918 313.227>
LayerCount: 2
Fore
SplineSet
51.08203125 375.2421875 m 2xa8
 51.08203125 375.233398438 l 2
 51.1953125 375.236328125 51.37890625 375.239257812 51.4931640625 375.239257812 c 0
 55.728515625 375.239257812 61.091796875 372.391601562 63.4638671875 368.8828125 c 2
 168.235351562 213.629882812 l 1
 223.055664062 295.229492188 l 2
 225.384765625 299.166992188 230.989257812 302.362304688 235.564453125 302.362304688 c 0
 243.586914062 302.362304688 250.09765625 295.8515625 250.09765625 287.829101562 c 0
 250.09765625 285.044921875 248.698242188 281.010742188 246.97265625 278.825195312 c 2
 185.379882812 187.706054688 l 1
 246.97265625 96.48046875 l 2
 248.698242188 94.294921875 250.09765625 90.2607421875 250.09765625 87.4765625 c 0
 250.09765625 79.4541015625 243.586914062 72.943359375 235.564453125 72.943359375 c 0
 230.989257812 72.943359375 225.384765625 76.138671875 223.055664062 80.076171875 c 2
 168.235351562 161.670898438 l 1
 63.4638671875 6.4189453125 l 2
 61.0947265625 2.8759765625 55.712890625 0 51.451171875 0 c 0
 43.4736328125 0 37 6.4736328125 37 14.451171875 c 0
 37 14.5703125 37.0029296875 14.765625 37.0068359375 14.8857421875 c 2
 37.0068359375 360.419921875 l 2
 37.0048828125 360.504882812 37.0029296875 360.642578125 37.0029296875 360.727539062 c 0
 37.0029296875 367.08203125 42.0302734375 373.392578125 48.224609375 374.8125 c 0
 49.0009765625 375.010742188 50.28125 375.203125 51.08203125 375.2421875 c 2xa8
65.7919921875 313.2265625 m 1
 65.7919921875 62.091796875 l 1
 150.561523438 187.711914062 l 1
 65.7919921875 313.2265625 l 1
EndSplineSet
EndChar

StartChar: r
Encoding: 114 114 21
Width: 345
VWidth: 0
Flags: W
HStem: 0 28.7871<64.79 276.774> 346.506 28.7861<36.9539 156.444 185.231 306.649>
VStem: 36 28.793<28.7871 245.147> 156.387 28.9023<108.248 346.506> 276.722 28.998<29.2178 246.089>
LayerCount: 2
Fore
SplineSet
49.232421875 375.291992188 m 0
 49.3935546875 375.298828125 49.6552734375 375.303710938 49.81640625 375.303710938 c 0
 49.9775390625 375.303710938 50.2392578125 375.298828125 50.3994140625 375.291992188 c 2
 291.276367188 375.291992188 l 2
 291.6328125 375.32421875 292.2109375 375.350585938 292.568359375 375.350585938 c 0
 300.545898438 375.350585938 307.01953125 368.875976562 307.01953125 360.899414062 c 0
 307.01953125 352.921875 300.545898438 346.447265625 292.568359375 346.447265625 c 0
 292.2109375 346.447265625 291.6328125 346.473632812 291.276367188 346.505859375 c 2
 185.231445312 346.505859375 l 1
 185.231445312 123.62109375 l 2
 185.263671875 123.264648438 185.2890625 122.685546875 185.2890625 122.329101562 c 0
 185.2890625 114.3515625 178.815429688 107.877929688 170.837890625 107.877929688 c 0
 162.861328125 107.877929688 156.38671875 114.3515625 156.38671875 122.329101562 c 0
 156.38671875 122.685546875 156.413085938 123.264648438 156.444335938 123.62109375 c 2
 156.444335938 346.505859375 l 1
 50.3994140625 346.505859375 l 2
 42.736328125 346.806640625 36.5166015625 353.276367188 36.5166015625 360.9453125 c 0
 36.5166015625 368.015625 42.2138671875 374.443359375 49.232421875 375.291992188 c 0
290.532226562 246.493164062 m 2
 290.532226562 246.486328125 l 2
 290.735351562 246.497070312 291.065429688 246.504882812 291.268554688 246.504882812 c 0
 299.24609375 246.504882812 305.719726562 240.03125 305.719726562 232.053710938 c 0
 305.719726562 231.713867188 305.696289062 231.162109375 305.666992188 230.823242188 c 2
 305.666992188 14.5 l 2
 305.666992188 14.486328125 305.666992188 14.46484375 305.666992188 14.451171875 c 0
 305.666992188 6.4736328125 299.193359375 0 291.215820312 0 c 0
 291.203125 0 291.180664062 0 291.16796875 0 c 2
 50.396484375 0 l 2
 42.451171875 0.0322265625 36.0029296875 6.505859375 36.0029296875 14.451171875 c 0
 36.0029296875 14.46484375 36.0029296875 14.486328125 36.0029296875 14.5 c 2
 36.0029296875 230.823242188 l 2
 36.001953125 230.908203125 36 231.045898438 36 231.130859375 c 0
 36 237.486328125 41.02734375 243.796875 47.22265625 245.216796875 c 0
 48.0732421875 245.404296875 49.470703125 245.557617188 50.341796875 245.557617188 c 0
 58.318359375 245.557617188 64.79296875 239.083007812 64.79296875 231.106445312 c 0
 64.79296875 231.028320312 64.791015625 230.901367188 64.7900390625 230.823242188 c 2
 64.7900390625 28.787109375 l 1
 276.774414062 29.2177734375 l 1
 276.774414062 230.830078125 l 2
 276.745117188 231.16796875 276.721679688 231.717773438 276.721679688 232.056640625 c 0
 276.721679688 239.6875 282.909179688 246.155273438 290.532226562 246.493164062 c 2
EndSplineSet
EndChar

StartChar: k
Encoding: 107 107 22
Width: 326
VWidth: 0
Flags: W
HStem: 0 21G<37.5034 43.564 283.892 289.953> 0 21G<37.5034 43.564 283.892 289.953> 346.156 28.8057<69.3096 258.147>
LayerCount: 2
Fore
SplineSet
40.1044921875 374.961914062 m 2xa0
 40.095703125 374.961914062 l 2
 40.2626953125 374.96875 40.533203125 374.974609375 40.7001953125 374.974609375 c 0
 40.8671875 374.974609375 41.1376953125 374.96875 41.3046875 374.961914062 c 2
 286.153320312 374.961914062 l 2
 294.024414062 374.85546875 300.412109375 368.380859375 300.412109375 360.509765625 c 0
 300.412109375 357.970703125 299.221679688 354.229492188 297.754882812 352.157226562 c 2
 181.331054688 187.325195312 l 1
 297.754882812 22.892578125 l 2
 299.23828125 20.8095703125 300.44140625 17.0439453125 300.44140625 14.4873046875 c 0
 300.44140625 6.490234375 293.951171875 0 285.954101562 0 c 0
 281.830078125 0 276.541015625 2.7275390625 274.150390625 6.0888671875 c 2
 163.728515625 162.51953125 l 1
 53.3056640625 6.0888671875 l 2
 50.9150390625 2.7275390625 45.6259765625 0 41.501953125 0 c 0
 33.5048828125 0 27.013671875 6.490234375 27.013671875 14.4873046875 c 0
 27.013671875 17.0439453125 28.2177734375 20.8095703125 29.701171875 22.892578125 c 2
 146.125 187.325195312 l 1
 29.701171875 352.157226562 l 2
 28.2099609375 354.240234375 27 358.009765625 27 360.571289062 c 0
 27 367.836914062 32.87109375 374.283203125 40.1044921875 374.961914062 c 2xa0
69.3095703125 346.15625 m 1
 163.728515625 212.530273438 l 1
 258.147460938 346.15625 l 1
 69.3095703125 346.15625 l 1
EndSplineSet
EndChar

StartChar: i
Encoding: 105 105 23
Width: 244
VWidth: 0
Flags: W
HStem: 0 21G<47.4629 52.5073> 0 21G<47.4629 52.5073> 354.734 20G<51.0693 52.3066> 354.734 20G<51.0693 52.3066>
VStem: 37.002 28.8066<39.0928 335.493>
LayerCount: 2
Fore
SplineSet
50.201171875 374.692382812 m 2xa8
 50.2109375 374.700195312 l 2
 50.4853515625 374.71875 50.931640625 374.734375 51.20703125 374.734375 c 0
 53.40625 374.734375 56.7236328125 373.8203125 58.611328125 372.693359375 c 2
 216.611328125 284.29296875 l 2
 220.616210938 281.993164062 223.8671875 276.37890625 223.8671875 271.760742188 c 0
 223.8671875 267.825195312 221.33203125 262.6875 218.208984375 260.29296875 c 2
 172.208984375 223.493164062 l 2
 170.024414062 221.768554688 165.9921875 220.369140625 163.208984375 220.369140625 c 0
 155.19140625 220.369140625 148.684570312 226.875976562 148.684570312 234.893554688 c 0
 148.684570312 238.778320312 151.159179688 243.885742188 154.208984375 246.29296875 c 2
 183.409179688 269.493164062 l 1
 65.80859375 335.493164062 l 1
 65.80859375 39.0927734375 l 1
 183.409179688 105.092773438 l 1
 154.208984375 128.29296875 l 2
 151.159179688 130.700195312 148.684570312 135.807617188 148.684570312 139.693359375 c 0
 148.684570312 147.7109375 155.19140625 154.217773438 163.208984375 154.217773438 c 0
 165.9921875 154.217773438 170.024414062 152.817382812 172.208984375 151.092773438 c 2
 218.208984375 114.29296875 l 2
 221.237304688 111.897460938 223.6953125 106.8203125 223.6953125 102.958984375 c 0
 223.6953125 98.2392578125 220.337890625 92.5654296875 216.202148438 90.29296875 c 2
 58.6025390625 1.8935546875 l 2
 56.7666015625 0.84765625 53.5634765625 0 51.451171875 0 c 0
 43.474609375 0 37 6.4736328125 37 14.451171875 c 0
 37 14.517578125 37.0009765625 14.6259765625 37.001953125 14.693359375 c 2
 37.001953125 360.29296875 l 2
 37.001953125 360.293945312 37.001953125 360.294921875 37.001953125 360.295898438 c 0
 37.001953125 367.609375 42.9150390625 374.059570312 50.201171875 374.692382812 c 2xa8
EndSplineSet
EndChar

StartChar: t
Encoding: 116 116 24
Width: 292
VWidth: 0
Flags: W
HStem: 0 21G<47.4629 55.4404 234.264 242.24> 0 21G<47.4629 55.4404 234.264 242.24> 353.667 29.2012<65.8516 223.852>
VStem: 37 28.9023<0.370235 353.667> 223.801 28.9023<0.370235 353.667>
LayerCount: 2
Fore
SplineSet
49.8515625 382.866210938 m 0xb8
 50.076171875 382.879882812 50.43359375 382.889648438 50.654296875 382.889648438 c 0
 50.875 382.889648438 51.232421875 382.879882812 51.453125 382.868164062 c 2
 238.251953125 382.868164062 l 2
 246.203125 382.841796875 252.65625 376.3671875 252.65625 368.416992188 c 0
 252.65625 368.3203125 252.654296875 368.163085938 252.65234375 368.06640625 c 2
 252.65234375 15.6669921875 l 2
 252.6796875 15.33203125 252.703125 14.787109375 252.703125 14.451171875 c 0
 252.703125 6.4736328125 246.228515625 0 238.251953125 0 c 0
 230.275390625 0 223.80078125 6.4736328125 223.80078125 14.451171875 c 0
 223.80078125 14.787109375 223.82421875 15.33203125 223.8515625 15.6669921875 c 2
 223.8515625 353.666992188 l 1
 65.8515625 353.666992188 l 1
 65.8515625 15.6669921875 l 2
 65.880859375 15.33203125 65.90234375 14.787109375 65.90234375 14.451171875 c 0
 65.90234375 6.4736328125 59.4296875 0 51.451171875 0 c 0
 43.474609375 0 37 6.4736328125 37 14.451171875 c 0
 37 14.787109375 37.0234375 15.33203125 37.05078125 15.6669921875 c 2
 37.05078125 368.466796875 l 2
 37.05078125 368.478515625 37.05078125 368.498046875 37.05078125 368.509765625 c 0
 37.05078125 375.622070312 42.78515625 382.053710938 49.8515625 382.866210938 c 0xb8
EndSplineSet
EndChar

StartChar: s
Encoding: 115 115 25
Width: 273
VWidth: 0
Flags: W
HStem: 0.00683594 20.9932G<47.4268 55.4038 214.961 222.938> 0.00683594 20.9932G<47.4268 55.4038 214.961 222.938> 249.007 28.7793<65.8086 204.556> 353.781 29.21<36.4607 233.104>
VStem: 37.0215 28.8447<0.377071 249.007> 204.498 28.9023<0.370235 248.576>
LayerCount: 2
Fore
SplineSet
49.828125 382.991210938 m 0x3c
 50.048828125 383.00390625 50.40625 383.013671875 50.626953125 383.013671875 c 0
 50.84765625 383.013671875 51.205078125 383.00390625 51.42578125 382.991210938 c 2
 218.959960938 382.991210938 l 2
 227.021484375 382.991210938 233.564453125 376.448242188 233.564453125 368.38671875 c 0
 233.564453125 360.32421875 227.021484375 353.78125 218.959960938 353.78125 c 2
 51.42578125 353.78125 l 2
 51.205078125 353.76953125 50.84765625 353.759765625 50.626953125 353.759765625 c 0
 42.552734375 353.759765625 36 360.3125 36 368.38671875 c 0
 36 376.03125 42.1953125 382.57421875 49.828125 382.991210938 c 0x3c
49.828125 277.79296875 m 2
 49.818359375 277.786132812 l 2
 50.0380859375 277.797851562 50.396484375 277.807617188 50.6171875 277.807617188 c 0
 50.8369140625 277.807617188 51.1953125 277.797851562 51.4150390625 277.786132812 c 2
 218.94921875 277.786132812 l 2
 226.86328125 277.75390625 233.311523438 271.306640625 233.342773438 263.392578125 c 2
 233.342773438 15.7431640625 l 2
 233.375 15.3876953125 233.400390625 14.80859375 233.400390625 14.451171875 c 0
 233.400390625 6.4736328125 226.926757812 0 218.94921875 0 c 0
 210.97265625 0 204.498046875 6.4736328125 204.498046875 14.451171875 c 0
 204.498046875 14.80859375 204.524414062 15.3876953125 204.555664062 15.7431640625 c 2
 204.555664062 248.576171875 l 1
 65.80859375 249.006835938 l 1
 65.80859375 15.75 l 2
 65.8408203125 15.3935546875 65.8662109375 14.8154296875 65.8662109375 14.4580078125 c 0
 65.8662109375 6.48046875 59.392578125 0.0068359375 51.4150390625 0.0068359375 c 0xbc
 43.4384765625 0.0068359375 36.9638671875 6.48046875 36.9638671875 14.4580078125 c 0
 36.9638671875 14.8154296875 36.990234375 15.3935546875 37.021484375 15.75 c 2
 37.021484375 263.400390625 l 2
 37.021484375 263.41015625 37.021484375 263.42578125 37.021484375 263.436523438 c 0
 37.021484375 270.551757812 42.7587890625 276.983398438 49.828125 277.79296875 c 2
EndSplineSet
EndChar

StartChar: eng
Encoding: 331 331 27
Width: 261
VWidth: 0
Flags: W
HStem: 0 21.1152G<37.5093 43.3145 218.86 224.677> 0 21.1152G<37.5093 43.3145 218.86 224.677> 354.971 19.9189G<41.2075 43.2983 219.844 220.11 220.829 224.939> 354.971 19.9189G<41.2075 43.2983 219.844 220.11 220.829 224.939>
LayerCount: 2
Fore
SplineSet
220.108398438 374.970703125 m 2xa0
 220.110351562 374.961914062 l 2
 220.340820312 374.975585938 220.713867188 374.986328125 220.944335938 374.986328125 c 0
 228.93359375 374.986328125 235.41796875 368.522460938 235.41796875 360.556640625 c 0
 235.41796875 357.375 233.6328125 352.920898438 231.434570312 350.615234375 c 2
 150.7890625 262.7734375 l 1
 211.008789062 197.05078125 l 2
 213.075195312 194.775390625 214.751953125 190.436523438 214.751953125 187.3671875 c 0
 214.751953125 184.297851562 213.075195312 179.958984375 211.008789062 177.68359375 c 2
 150.895507812 112.171875 l 1
 231.434570312 24.54296875 l 2
 233.55078125 22.2353515625 235.267578125 17.826171875 235.267578125 14.7001953125 c 0
 235.267578125 6.6494140625 228.713867188 0.115234375 220.639648438 0.115234375 c 0
 217.081054688 0.115234375 212.245117188 2.2392578125 209.84375 4.857421875 c 2
 131.104492188 90.6884765625 l 1
 52.3642578125 4.857421875 l 2
 49.9736328125 2.17578125 45.11328125 0 41.515625 0 c 0
 33.5029296875 0 27 6.4833984375 27 14.4716796875 c 0
 27 17.70703125 28.8330078125 22.21875 31.091796875 24.54296875 c 2
 111.418945312 112.171875 l 1
 51.412109375 177.68359375 l 2
 49.345703125 179.958984375 47.66796875 184.297851562 47.66796875 187.3671875 c 0
 47.66796875 190.436523438 49.345703125 194.775390625 51.412109375 197.05078125 c 2
 111.630859375 262.7734375 l 1
 31.091796875 350.615234375 l 2
 28.9306640625 352.913085938 27.177734375 357.333984375 27.177734375 360.483398438 c 0
 27.177734375 367.318359375 32.6767578125 373.70703125 39.451171875 374.74609375 c 0
 40.01171875 374.825195312 40.9248046875 374.889648438 41.490234375 374.889648438 c 0
 45.1064453125 374.889648438 49.9775390625 372.69140625 52.3642578125 369.982421875 c 2
 131.104492188 284.044921875 l 1
 209.84375 369.982421875 l 2
 211.686523438 372.108398438 215.431640625 374.2421875 218.204101562 374.74609375 c 0
 218.725585938 374.842773438 219.579101562 374.943359375 220.108398438 374.970703125 c 2xa0
131.103515625 241.409179688 m 1
 81.6787109375 187.540039062 l 1
 131.103515625 133.670898438 l 1
 180.52734375 187.540039062 l 1
 131.103515625 241.409179688 l 1
EndSplineSet
EndChar

StartChar: small_capital_i
Encoding: 618 618 28
Width: 238
VWidth: 0
Flags: W
HStem: 0 21G<189.476 195.146> 0 21G<189.476 195.146> 354.755 20G<191.107 195.13> 354.755 20G<191.107 195.13>
VStem: 176.807 28.8496<49.9658 115.659 259.06 324.753>
LayerCount: 2
Fore
SplineSet
190.806640625 374.750976562 m 2xa8
 190.805664062 374.750976562 l 2
 190.901367188 374.752929688 191.05859375 374.754882812 191.155273438 374.754882812 c 0
 199.10546875 374.754882812 205.579101562 368.302734375 205.60546875 360.3515625 c 2
 205.60546875 274.35546875 l 2
 205.633789062 274.020507812 205.65625 273.4765625 205.65625 273.139648438 c 0
 205.65625 265.163085938 199.182617188 258.689453125 191.206054688 258.689453125 c 0
 183.229492188 258.689453125 176.755859375 265.163085938 176.755859375 273.139648438 c 0
 176.755859375 273.4765625 176.778320312 274.020507812 176.806640625 274.35546875 c 2
 176.806640625 324.752929688 l 1
 42.0126953125 187.559570312 l 1
 176.806640625 49.9658203125 l 1
 176.806640625 100.36328125 l 2
 176.778320312 100.698242188 176.755859375 101.243164062 176.755859375 101.579101562 c 0
 176.755859375 109.555664062 183.229492188 116.029296875 191.206054688 116.029296875 c 0
 199.182617188 116.029296875 205.65625 109.555664062 205.65625 101.579101562 c 0
 205.65625 101.243164062 205.633789062 100.698242188 205.60546875 100.36328125 c 2
 205.60546875 14.767578125 l 2
 205.607421875 14.6796875 205.608398438 14.5380859375 205.608398438 14.4501953125 c 0
 205.608398438 6.4736328125 199.134765625 0 191.158203125 0 c 0
 187.79296875 0 183.155273438 1.95703125 180.806640625 4.3681640625 c 2
 11.2138671875 177.16015625 l 2
 8.8876953125 179.495117188 7 184.064453125 7 187.360351562 c 0
 7 190.655273438 8.8876953125 195.224609375 11.2138671875 197.559570312 c 2
 180.806640625 370.3515625 l 2
 183.0703125 372.692382812 187.55078125 374.663085938 190.806640625 374.750976562 c 2xa8
EndSplineSet
EndChar

StartChar: upsilon
Encoding: 650 650 29
Width: 235
VWidth: 0
Flags: W
HStem: 173.968 28.7852<55.2549 198.625>
LayerCount: 2
Fore
SplineSet
176.955078125 371.219726562 m 1
 176.955078125 371.220703125 l 2
 190.823242188 388.728515625 216.913085938 366.467773438 197.802734375 350.803710938 c 2
 55.2548828125 202.752929688 l 1
 187.325195312 202.752929688 l 2
 208.315429688 204.63671875 208.315429688 172.083984375 187.325195312 173.967773438 c 2
 55.2548828125 173.967773438 l 1
 198.120117188 25.591796875 l 2
 213.677734375 11.7666015625 190.627929688 -10.458984375 177.377929688 5.5908203125 c 2
 11.01953125 178.404296875 l 2
 5.66015625 183.995117188 5.66015625 192.815429688 11.01953125 198.40625 c 2
 176.955078125 371.219726562 l 1
EndSplineSet
EndChar

StartChar: eth
Encoding: 240 240 30
Width: 346
VWidth: 0
Flags: W
HStem: 0 29.2119<65.7969 278.217> 355.419 19.9834G<51.124 55.3408 171.692 171.971 288.74 296.8> 355.419 19.9834G<51.124 55.3408 171.692 171.971>
VStem: 37 28.8047<29.2119 375.009> 157.766 28.8066<108.247 374.981> 278.217 29.1055<29.2119 375.898>
LayerCount: 2
Fore
SplineSet
172.166015625 375.416992188 m 2x9c
 172.169921875 375.415039062 l 2
 180.119140625 375.387695312 186.572265625 368.913085938 186.572265625 360.962890625 c 0
 186.572265625 360.833007812 186.568359375 360.62109375 186.564453125 360.490234375 c 2
 186.564453125 123.62109375 l 2
 186.595703125 123.265625 186.62109375 122.686523438 186.62109375 122.329101562 c 0
 186.62109375 114.3515625 180.146484375 107.876953125 172.169921875 107.876953125 c 0
 164.19140625 107.876953125 157.716796875 114.3515625 157.716796875 122.329101562 c 0
 157.716796875 122.686523438 157.744140625 123.265625 157.775390625 123.62109375 c 2
 157.775390625 360.490234375 l 2
 157.76953125 360.631835938 157.765625 360.862304688 157.765625 361.00390625 c 0
 157.765625 367.915039062 163.318359375 374.323242188 170.158203125 375.30859375 c 0
 170.6484375 375.369140625 171.4453125 375.418945312 171.939453125 375.418945312 c 0
 172.001953125 375.418945312 172.103515625 375.41796875 172.166015625 375.416992188 c 2x9c
49.708984375 375.30859375 m 0
 50.16015625 375.360351562 50.896484375 375.40234375 51.3515625 375.40234375 c 0xdc
 59.330078125 375.40234375 65.8046875 368.927734375 65.8046875 360.950195312 c 0
 65.8046875 360.823242188 65.80078125 360.6171875 65.796875 360.490234375 c 2
 65.796875 29.2119140625 l 1
 278.216796875 29.2119140625 l 1
 278.216796875 360.490234375 l 2
 278.19140625 360.815429688 278.169921875 361.344726562 278.169921875 361.670898438 c 0
 278.169921875 369.73046875 284.7109375 376.272460938 292.76953125 376.272460938 c 0
 300.830078125 376.272460938 307.37109375 369.73046875 307.37109375 361.670898438 c 0
 307.37109375 361.344726562 307.349609375 360.815429688 307.322265625 360.490234375 c 2
 307.322265625 14.818359375 l 2
 307.326171875 14.716796875 307.328125 14.552734375 307.328125 14.4521484375 c 0
 307.328125 6.50390625 300.876953125 0.029296875 292.9296875 0 c 2
 51.40234375 0 l 2
 43.45703125 0.0322265625 37.0078125 6.505859375 37.0078125 14.4521484375 c 0
 37.0078125 14.4658203125 37.0078125 14.4873046875 37.0078125 14.5009765625 c 2
 37.0078125 360.490234375 l 2
 37.00390625 360.62109375 37 360.83203125 37 360.961914062 c 0
 37 368.028320312 42.693359375 374.456054688 49.708984375 375.30859375 c 0
EndSplineSet
EndChar

StartChar: theta
Encoding: 952 952 31
Width: 346
VWidth: 0
Flags: W
HStem: 0.0390625 20.9609G<47.4629 55.4395 168.222 176.199 288.772 296.832> 0.0390625 20.9609G<47.4629 55.4395 168.222 176.199 288.772 296.832> 347.461 28.7861<65.8457 278.25>
VStem: 37 28.9023<0.409295 347.461> 157.809 28.8027<0.405442 267.121> 278.203 29.1992<0.459915 347.461>
LayerCount: 2
Fore
SplineSet
49.7578125 376.247070312 m 2xbc
 49.751953125 376.247070312 l 2
 49.986328125 376.260742188 50.3671875 376.272460938 50.6015625 376.272460938 c 0
 50.8359375 376.272460938 51.216796875 376.260742188 51.451171875 376.247070312 c 2
 292.9609375 376.247070312 l 2
 300.875 376.215820312 307.322265625 369.767578125 307.353515625 361.853515625 c 2
 307.353515625 15.7822265625 l 2
 307.380859375 15.4560546875 307.40234375 14.9267578125 307.40234375 14.599609375 c 0
 307.40234375 6.541015625 300.861328125 0 292.802734375 0 c 0
 284.7421875 0 278.203125 6.541015625 278.203125 14.599609375 c 0
 278.203125 14.9267578125 278.224609375 15.4560546875 278.25 15.7822265625 c 2
 278.25 347.4609375 l 1
 65.845703125 347.4609375 l 1
 65.845703125 15.7822265625 l 2
 65.876953125 15.42578125 65.90234375 14.8466796875 65.90234375 14.4892578125 c 0
 65.90234375 6.5126953125 59.427734375 0.0390625 51.451171875 0.0390625 c 0
 43.474609375 0.0390625 37 6.5126953125 37 14.4892578125 c 0
 37 14.8466796875 37.02734375 15.42578125 37.05859375 15.7822265625 c 2
 37.05859375 361.853515625 l 2
 37.05859375 361.8671875 37.05859375 361.888671875 37.05859375 361.90234375 c 0
 37.05859375 368.96484375 42.748046875 375.391601562 49.7578125 376.247070312 c 2xbc
172.205078125 267.557617188 m 2
 172.2109375 267.555664062 l 2
 180.16015625 267.528320312 186.611328125 261.0546875 186.611328125 253.104492188 c 0
 186.611328125 252.974609375 186.607421875 252.763671875 186.603515625 252.634765625 c 2
 186.603515625 15.7783203125 l 2
 186.634765625 15.4228515625 186.66015625 14.84375 186.66015625 14.486328125 c 0
 186.66015625 6.509765625 180.1875 0.03515625 172.2109375 0.03515625 c 0
 164.232421875 0.03515625 157.759765625 6.509765625 157.759765625 14.486328125 c 0
 157.759765625 14.84375 157.78515625 15.4228515625 157.81640625 15.7783203125 c 2
 157.81640625 252.631835938 l 2
 157.8125 252.7734375 157.80859375 253.00390625 157.80859375 253.145507812 c 0
 157.80859375 260.055664062 163.359375 266.463867188 170.19921875 267.44921875 c 0
 170.6875 267.509765625 171.486328125 267.559570312 171.978515625 267.559570312 c 0
 172.041015625 267.559570312 172.142578125 267.55859375 172.205078125 267.557617188 c 2
EndSplineSet
EndChar
